# xmcd
#
# Track frame offsets:
#	150
#	12029
#	24952
#	38032
#	53050
#	67911
#	82394
#	100952
#	115394
#	128080
#	143303
#	157661
#	169430
#	186615
#	203055
#	218318
#	233130
#	246073
#	264727
#	275611
#	289731
#	301935
#	316048
#	330927
#
# Disc length: 4569 seconds
#
# Revision: 0
# Processed by: cddbd v1.5.2PL0 Copyright (c) Steve Scherf et al.
# Submitted via: EZCDAudioConverter 2.2.2.1
#
DISCID=4211d718
DTITLE=Roberto Luti - Lo Mejor
DYEAR=2002
DGENRE=Balada
TTITLE0=Celoso
TTITLE1=Tu Me Amas
TTITLE2=Basta, No Quiero Tu Ausencia
TTITLE3=En Cuerpo Y Alma
TTITLE4=Te Quiero, Me Quieres
TTITLE5=Ana La Inolvidable
TTITLE6=Los Divorciados
TTITLE7=Tu En Mi Vida
TTITLE8=No Quiero
TTITLE9=Tu Y Yo Para Siempre
TTITLE10=Honestamente Te Quiero
TTITLE11=De Noche
TTITLE12=Antes De Partir
TTITLE13=Por Ti
TTITLE14=Vete De Mi
TTITLE15=Quiero
TTITLE16=Amor Profundo
TTITLE17=Felicidades
TTITLE18=Melinda
TTITLE19=Felicidad
TTITLE20=Mi Amor No Es Para Ti
TTITLE21=Que Has Hecho
TTITLE22=Feliz Cumpleaños
TTITLE23=El Ta Ta Ta
EXTD=
EXTT0=
EXTT1=
EXTT2=
EXTT3=
EXTT4=
EXTT5=
EXTT6=
EXTT7=
EXTT8=
EXTT9=
EXTT10=
EXTT11=
EXTT12=
EXTT13=
EXTT14=
EXTT15=
EXTT16=
EXTT17=
EXTT18=
EXTT19=
EXTT20=
EXTT21=
EXTT22=
EXTT23=
PLAYORDER=
